<?xml version="1.0" standalone="no"?>
<!DOCTYPE svg PUBLIC "-//W3C//DTD SVG 20010904//EN"
 "http://www.w3.org/TR/2001/REC-SVG-20010904/DTD/svg10.dtd">
<svg version="1.0" xmlns="http://www.w3.org/2000/svg"
 width="500.000000pt" height="500.000000pt" viewBox="0 0 500.000000 500.000000"
 preserveAspectRatio="xMidYMid meet">

<g transform="translate(0.000000,500.000000) scale(0.100000,-0.100000)"
fill="#000000" stroke="none">
<path d="M2250 3844 c-25 -8 -52 -20 -60 -27 -9 -6 -47 -110 -87 -230 l-71
-218 -93 -4 c-167 -7 -300 -64 -399 -172 -141 -154 -169 -362 -76 -553 33 -69
126 -176 182 -211 l34 -21 -27 -46 c-47 -84 -111 -177 -153 -225 -23 -25 -39
-51 -36 -56 10 -15 169 -34 239 -29 115 10 239 85 314 192 27 40 44 56 61 56
48 0 311 50 392 75 103 31 228 79 295 112 l50 26 88 -93 c48 -51 119 -135 158
-186 126 -168 223 -218 351 -180 72 21 112 52 103 80 -3 11 -8 34 -10 51 -8
52 -121 267 -188 356 -36 47 -68 97 -72 110 -4 13 -18 50 -32 82 l-24 58 86
107 c99 122 188 261 180 280 -2 7 -1 10 4 7 9 -5 27 32 23 48 -1 4 3 7 9 7 5
0 7 5 4 10 -3 6 -1 10 5 10 6 0 8 5 5 10 -3 6 -1 10 6 10 7 0 10 3 6 6 -3 4 2
23 13 44 20 39 60 140 56 140 -2 0 -25 -33 -51 -72 -90 -136 -248 -310 -369
-406 l-40 -31 -46 122 c-108 283 -244 546 -331 641 -86 95 -204 137 -379 135
-41 0 -95 -7 -120 -15z m381 -544 c37 -96 65 -176 64 -178 -2 -2 -21 8 -42 21
-22 14 -82 46 -134 72 -52 26 -95 48 -96 49 -2 2 21 69 50 150 l52 148 19 -43
c11 -24 50 -123 87 -219z m769 -204 c0 -2 -8 -10 -17 -17 -16 -13 -17 -12 -4
4 13 16 21 21 21 13z m-40 -50 c0 -2 -8 -10 -17 -17 -16 -13 -17 -12 -4 4 13
16 21 21 21 13z m-1466 -93 c-6 -31 -48 -156 -79 -236 -16 -40 -65 38 -65 103
0 65 36 119 105 154 43 23 47 20 39 -21z m1406 24 c0 -1 -24 -25 -52 -52 l-53
-50 50 53 c46 48 55 57 55 49z m-835 -183 c44 -29 95 -65 113 -81 l34 -28
-103 -29 c-102 -28 -320 -68 -328 -60 -3 2 17 62 44 132 26 70 52 138 56 150
l9 24 48 -27 c26 -15 83 -52 127 -81z m165 -284 c-8 -5 -19 -10 -25 -10 -5 0
-3 5 5 10 8 5 20 10 25 10 6 0 3 -5 -5 -10z m-50 -20 c-8 -5 -19 -10 -25 -10
-5 0 -3 5 5 10 8 5 20 10 25 10 6 0 3 -5 -5 -10z m-243 -76 c-3 -3 -12 -4 -19
-1 -8 3 -5 6 6 6 11 1 17 -2 13 -5z m-44 -11 c-7 -2 -19 -2 -25 0 -7 3 -2 5
12 5 14 0 19 -2 13 -5z m-56 -9 c-3 -3 -12 -4 -19 -1 -8 3 -5 6 6 6 11 1 17
-2 13 -5z"/>
<path d="M2305 1811 c-48 -22 -69 -44 -90 -94 -28 -68 -9 -164 41 -209 29 -25
88 -48 126 -48 50 0 116 37 146 83 39 58 38 146 -1 206 -49 74 -141 100 -222
62z m130 -85 c71 -71 17 -201 -76 -181 -36 8 -59 35 -66 79 -15 96 79 165 142
102z"/>
<path d="M3200 1817 c-86 -45 -120 -94 -120 -173 0 -69 36 -125 102 -158 56
-28 92 -32 150 -16 47 13 53 24 38 61 -12 27 -16 29 -44 23 -17 -3 -33 -6 -36
-6 -93 -2 -144 67 -109 145 20 44 84 63 150 43 21 -6 27 -3 37 19 18 38 15 45
-23 61 -43 17 -112 18 -145 1z"/>
<path d="M1342 1646 l-70 -176 44 0 c41 0 45 3 58 35 15 35 15 35 80 35 l64 0
12 -35 c11 -33 14 -35 56 -35 24 0 44 3 44 8 -1 4 -31 81 -69 172 l-67 165
-41 3 -40 3 -71 -175z m131 9 l16 -45 -35 0 c-19 0 -34 4 -34 9 0 12 29 81 34
81 2 0 11 -20 19 -45z"/>
<path d="M1640 1688 c0 -86 5 -142 13 -157 31 -62 130 -89 197 -54 57 30 70
68 70 216 l0 127 -45 0 -45 0 0 -122 c0 -68 -4 -129 -9 -136 -10 -17 -68 -19
-84 -3 -8 8 -13 57 -16 136 l-3 125 -39 0 -39 0 0 -132z"/>
<path d="M1940 1785 c0 -34 1 -35 40 -35 l40 0 0 -140 0 -140 45 0 45 0 0 140
0 140 40 0 c39 0 40 1 40 35 l0 35 -125 0 -125 0 0 -35z"/>
<path d="M2570 1785 c0 -34 1 -35 40 -35 l40 0 0 -140 0 -140 40 0 40 0 0 140
0 140 45 0 c45 0 45 0 45 35 l0 35 -125 0 -125 0 0 -35z"/>
<path d="M2840 1645 l0 -175 105 0 105 0 0 35 0 35 -60 0 -60 0 0 35 0 35 55
0 55 0 0 35 0 35 -55 0 -55 0 0 35 0 35 60 0 60 0 0 35 0 35 -105 0 -105 0 0
-175z"/>
<path d="M3410 1645 l0 -175 45 0 45 0 0 70 0 70 55 0 55 0 0 -70 0 -70 40 0
40 0 0 175 0 175 -40 0 -40 0 0 -70 0 -70 -55 0 -55 0 0 70 0 70 -45 0 -45 0
0 -175z"/>
<path d="M1850 1265 c0 -59 2 -65 21 -65 42 0 58 17 57 63 -2 52 -12 67 -49
67 -29 0 -29 0 -29 -65z m53 30 c1 -5 -6 -11 -15 -13 -11 -2 -18 3 -18 13 0
17 30 18 33 0z m2 -55 c0 -8 -8 -16 -17 -18 -13 -2 -18 3 -18 18 0 15 5 20 18
18 9 -2 17 -10 17 -18z"/>
<path d="M2034 1322 c-26 -17 -35 -51 -22 -79 30 -63 118 -48 118 21 0 19 -8
40 -18 49 -19 18 -59 22 -78 9z m64 -24 c34 -34 -6 -90 -48 -68 -35 19 -20 80
20 80 9 0 21 -5 28 -12z"/>
<path d="M2200 1320 c0 -5 7 -10 15 -10 12 0 15 -13 15 -55 0 -42 3 -55 15
-55 12 0 15 13 15 55 0 42 3 55 15 55 8 0 15 5 15 10 0 6 -20 10 -45 10 -25 0
-45 -4 -45 -10z"/>
<path d="M2367 1323 c-17 -16 -6 -54 18 -65 30 -13 27 -33 -4 -32 -25 1 -23
-19 3 -24 44 -9 62 51 21 70 -30 13 -33 38 -5 38 11 0 20 5 20 10 0 11 -43 14
-53 3z"/>
<path d="M2500 1322 c0 -5 11 -35 24 -68 23 -56 25 -57 31 -31 8 32 21 35 30
7 10 -32 20 -24 41 32 10 29 21 56 22 60 2 4 -2 8 -8 8 -6 0 -17 -13 -23 -30
-14 -37 -23 -38 -35 -2 l-10 27 -11 -27 c-14 -36 -20 -35 -32 2 -10 27 -29 42
-29 22z"/>
<path d="M2738 1265 c-20 -50 -23 -65 -12 -65 8 0 14 5 14 10 0 6 11 10 25 10
14 0 25 -4 25 -10 0 -5 7 -10 15 -10 12 0 11 9 -6 52 -33 84 -33 84 -61 13z
m42 -16 c0 -5 -7 -9 -15 -9 -9 0 -12 6 -9 15 6 15 24 11 24 -6z"/>
<path d="M2890 1268 c0 -39 4 -68 10 -68 6 0 10 17 10 37 l0 37 40 -39 40 -39
0 67 c0 53 -3 67 -15 67 -11 0 -15 -11 -15 -37 l0 -36 -35 39 -34 39 -1 -67z"/>
<path d="M3081 1264 c-12 -32 -20 -59 -17 -61 2 -2 13 2 25 9 17 11 25 11 42
0 12 -7 23 -11 25 -9 6 6 -37 117 -46 117 -4 0 -17 -25 -29 -56z m39 -9 c0 -8
-4 -15 -10 -15 -5 0 -10 7 -10 15 0 8 5 15 10 15 6 0 10 -7 10 -15z"/>
</g>
</svg>
